# xmcd
#
# Track frame offsets: 
#        150
#        23197
#        48096
#        74307
#        99157
#        125737
#        155336
#        180211
#        196987
#        213604
#        236673
#        257798
#        279964
#        311998
#
# Disc length: 4520 seconds
#
# Revision: 0
# Processed by: cddbd v1.5.1PL2 Copyright (c) Steve Scherf et al.
# Submitted via: ExactAudioCopy v0.95b3
#
DISCID=c011a60e
DTITLE=Bonnaroo 6-15-03 - Warren Haynes
DYEAR=2003
DGENRE=Rock
TTITLE0=Patchwork Quilt
TTITLE1=Glory Road
TTITLE2=The Real Thing
TTITLE3=One
TTITLE4=In My Life
TTITLE5=I'll Be The One
TTITLE6=Fallen Down
TTITLE7=Forevermore
TTITLE8=Beautifully Broken
TTITLE9=I've Got Dreams To Remember
TTITLE10=Tastes Like Wine
TTITLE11=Wasted Time
TTITLE12=Stella Blue
TTITLE13=Soulshine
EXTD=
EXTT0=
EXTT1=
EXTT2=
EXTT3=
EXTT4=
EXTT5=
EXTT6=
EXTT7=
EXTT8=
EXTT9=
EXTT10=
EXTT11=
EXTT12=
EXTT13=
PLAYORDER=
